<svg xmlns="http://www.w3.org/2000/svg" width="90" height="90" fill="none" viewBox="0 0 90 90"><path fill="#000" d="M69.75 20.25H47.542l-10.83 11.398-.5.478a6.75 6.75 0 0 1-3.703 1.588l-.693.036H9v31.5l.023.738A11.25 11.25 0 0 0 20.25 76.5h29.421a15 15 0 0 1-.171-2.25 11.25 11.25 0 0 1 10.228-11.205A13.5 13.5 0 1 1 81 46.53V31.5l-.022-.738-.072-.729A11.25 11.25 0 0 0 69.75 20.25m-34.056-5.805a6.75 6.75 0 0 0-3.443-.945H20.25l-.738.023A11.25 11.25 0 0 0 9 24.75v4.5h22.815l.369-.032c.36-.058.7-.203.99-.422l.275-.248 8.784-9.243-5.931-4.455zM78.75 54a9 9 0 1 1-18 0 9 9 0 0 1 18 0m6.75 20.25c0 5.603-4.5 11.25-15.75 11.25S54 79.875 54 74.25a6.75 6.75 0 0 1 6.75-6.75h18a6.75 6.75 0 0 1 6.75 6.75"/></svg>