<svg xmlns="http://www.w3.org/2000/svg" width="90" height="90" fill="none" viewBox="0 0 90 90"><path fill="#000" d="M22.5 48.75h-15c-2.25 0-3.75 1.5-3.75 3.75v30c0 2.25 1.5 3.75 3.75 3.75h15c2.25 0 3.75-1.5 3.75-3.75v-30c0-2.25-1.5-3.75-3.75-3.75m60-15h-15c-2.25 0-3.75 1.5-3.75 3.75v45c0 2.25 1.5 3.75 3.75 3.75h15c2.25 0 3.75-1.5 3.75-3.75v-45c0-2.25-1.5-3.75-3.75-3.75m-30-30h-15c-2.25 0-3.75 1.5-3.75 3.75v75c0 2.25 1.5 3.75 3.75 3.75h15c2.25 0 3.75-1.5 3.75-3.75v-75c0-2.25-1.5-3.75-3.75-3.75"/></svg>