<svg xmlns="http://www.w3.org/2000/svg" width="90" height="90" fill="none" viewBox="0 0 90 90"><path fill="#000" fill-rule="evenodd" d="M45.075 11.25c-8.47 0-16.187 2.797-20.752 5.083q-.619.31-1.155.604c-.71.386-1.313.746-1.793 1.063l5.194 7.646 2.445.973c9.555 4.821 22.369 4.821 31.925 0l2.775-1.44L68.627 18a29 29 0 0 0-3.169-1.794c-4.541-2.262-12.073-4.956-20.383-4.956m-12.08 8.655a46 46 0 0 1-5.44-1.365c4.277-1.9 10.652-3.915 17.518-3.915 4.757 0 9.255.967 12.975 2.194-4.36.613-9.011 1.654-13.444 2.934-3.487 1.009-7.563.9-11.61.152M62.918 29.4l-.459.233c-10.513 5.302-24.456 5.302-34.969 0l-.435-.222C11.265 46.738-.79 78.744 45.075 78.744c45.863 0 33.512-32.604 17.844-49.344M43.125 45a3.75 3.75 0 1 0 0 7.5zm3.75-3.75v-1.875h-3.75v1.875a7.5 7.5 0 0 0 0 15v7.5a3.75 3.75 0 0 1-3.536-2.5 1.875 1.875 0 1 0-3.536 1.25 7.5 7.5 0 0 0 7.072 5v1.875h3.75V67.5a7.5 7.5 0 0 0 0-15V45c1.631 0 3.02 1.04 3.538 2.5a1.876 1.876 0 1 0 3.535-1.25 7.5 7.5 0 0 0-7.073-5m0 15v7.5a3.75 3.75 0 0 0 0-7.5" clip-rule="evenodd"/></svg>